<?xml version="1.0" encoding="iso-8859-1"?>
<!-- Generator: Adobe Illustrator 19.0.0, SVG Export Plug-In . SVG Version: 6.00 Build 0)  -->
<svg xmlns="http://www.w3.org/2000/svg" xmlns:xlink="http://www.w3.org/1999/xlink" version="1.1" id="Layer_1" x="0px" y="0px" viewBox="0 0 512 512" style="enable-background:new 0 0 512 512;" xml:space="preserve">
<rect x="323.611" y="32.555" transform="matrix(-0.7071 -0.7071 0.7071 -0.7071 487.0869 467.2133)" style="fill:#9FB0C6;" width="33.391" height="200.346"/>
<rect x="337.874" y="38.457" transform="matrix(0.7071 0.7071 -0.7071 0.7071 199.4321 -204.2122)" style="fill:#95A4B9;" width="16.695" height="200.346"/>
<path style="fill:#9FB0C6;" d="M356.294,267.232c-9.287,0-16.686-7.555-16.686-16.686V133.592h-0.158l-116.718,0.079  c-9.287,0-16.686-7.555-16.686-16.686c0-9.286,7.477-16.764,16.686-16.686l133.561-0.078c4.486,0.079,8.657,1.889,11.727,4.801  c3.07,3.07,4.815,7.241,4.815,11.963l0.032,133.561C372.947,259.754,365.581,267.232,356.294,267.232z"/>
<path style="fill:#95A4B9;" d="M356.294,267.232c-9.287,0-16.686-7.555-16.686-16.686V133.592h-0.158l28.57-28.57  c3.07,3.07,4.815,7.241,4.815,11.963l0.032,133.561C372.947,259.754,365.581,267.232,356.294,267.232z"/>
<path style="fill:#C3CFE2;" d="M159.298,313.746L159.298,313.746c-71.721-71.721-71.721-188.003,0-259.723l0,0  c6.52-6.52,17.091-6.52,23.611,0l236.112,236.112c6.52,6.52,6.52,17.091,0,23.611l0,0  C347.301,385.466,231.019,385.466,159.298,313.746z"/>
<path style="fill:#B7C3D5;" d="M419.021,290.135L300.965,172.079L159.298,313.746c71.721,71.721,188.003,71.72,259.723,0  C425.541,307.226,425.541,296.654,419.021,290.135z"/>
<path style="fill:#C3CFE2;" d="M473.043,50.087c0,12.8-4.897,25.6-14.692,35.395c-19.59,19.59-51.2,19.59-70.79,0  s-19.59-51.2,0-70.79C397.357,4.897,410.156,0,422.957,0c12.8,0,25.6,4.897,35.395,14.692S473.043,37.287,473.043,50.087z"/>
<path style="fill:#B7C3D5;" d="M473.043,50.087c0,12.8-4.897,25.6-14.692,35.395c-19.59,19.59-51.2,19.59-70.79,0l70.79-70.79  C468.146,24.487,473.043,37.287,473.043,50.087z"/>
<path style="fill:#9FB0C6;" d="M205.913,233.739c-36.826,0-66.783,29.956-66.783,66.783v128c0,9.217,7.473,16.696,16.696,16.696H256  c9.223,0,16.696-7.479,16.696-16.696v-128C272.696,263.696,242.739,233.739,205.913,233.739z"/>
<path style="fill:#95A4B9;" d="M256,445.217c9.223,0,16.696-7.479,16.696-16.696v-128c0-36.826-29.956-66.783-66.783-66.783v211.478  H256z"/>
<path style="fill:#58718C;" d="M356.174,512H55.652c-9.223,0-16.696-7.479-16.696-16.696v-33.391  c0-27.619,22.468-50.087,50.087-50.087h233.739c27.619,0,50.087,22.468,50.087,50.087v33.391  C372.87,504.521,365.397,512,356.174,512z"/>
<path style="fill:#50667F;" d="M322.783,411.826h-116.87V512h150.261c9.223,0,16.696-7.479,16.696-16.696v-33.391  C372.87,434.294,350.402,411.826,322.783,411.826z"/>
<g>
</g>
<g>
</g>
<g>
</g>
<g>
</g>
<g>
</g>
<g>
</g>
<g>
</g>
<g>
</g>
<g>
</g>
<g>
</g>
<g>
</g>
<g>
</g>
<g>
</g>
<g>
</g>
<g>
</g>
</svg>
