<?xml version="1.0" encoding="UTF-8" standalone="no"?>
<!-- Generator: Adobe Illustrator 18.0.0, SVG Export Plug-In . SVG Version: 6.00 Build 0)  -->

<svg
   xmlns:dc="http://purl.org/dc/elements/1.1/"
   xmlns:cc="http://creativecommons.org/ns#"
   xmlns:rdf="http://www.w3.org/1999/02/22-rdf-syntax-ns#"
   xmlns:svg="http://www.w3.org/2000/svg"
   xmlns="http://www.w3.org/2000/svg"
   xmlns:sodipodi="http://sodipodi.sourceforge.net/DTD/sodipodi-0.dtd"
   xmlns:inkscape="http://www.inkscape.org/namespaces/inkscape"
   version="1.1"
   id="Capa_1"
   x="0px"
   y="0px"
   viewBox="0 0 386 386"
   style="enable-background:new 0 0 386 386;"
   xml:space="preserve"
   sodipodi:docname="setting_1200398_easyicon.net.svg"
   inkscape:version="0.92.2 (5c3e80d, 2017-08-06)"><metadata
     id="metadata49"><rdf:RDF><cc:Work
         rdf:about=""><dc:format>image/svg+xml</dc:format><dc:type
           rdf:resource="http://purl.org/dc/dcmitype/StillImage" /></cc:Work></rdf:RDF></metadata><defs
     id="defs47" /><sodipodi:namedview
     pagecolor="#ffffff"
     bordercolor="#666666"
     borderopacity="1"
     objecttolerance="10"
     gridtolerance="10"
     guidetolerance="10"
     inkscape:pageopacity="0"
     inkscape:pageshadow="2"
     inkscape:window-width="640"
     inkscape:window-height="480"
     id="namedview45"
     showgrid="false"
     inkscape:zoom="0.61139896"
     inkscape:cx="193"
     inkscape:cy="193"
     inkscape:window-x="2855"
     inkscape:window-y="373"
     inkscape:window-maximized="0"
     inkscape:current-layer="Capa_1" /><path
     style="fill:#f9f9f9"
     d="M212.305,49.37c0,27.27,22.1,49.38,49.37,49.38h-137.35c-27.26,0-49.37-22.11-49.37-49.38  c0-13.63,5.53-25.97,14.46-34.91C98.355,5.53,110.695,0,124.325,0h137.35C234.405,0,212.305,22.11,212.305,49.37z"
     id="path2" /><path
     style="fill:#f2f2f2"
     d="M261.675,0c27.27,0,49.37,22.11,49.37,49.37c0,13.64-5.52,25.98-14.46,34.92  c-8.93,8.93-21.28,14.46-34.91,14.46c-27.27,0-49.37-22.11-49.37-49.38C212.305,22.11,234.405,0,261.675,0z"
     id="path4" /><path
     style="fill:#ffffff"
     d="M124.325,287.26c27.27,0,49.38,22.1,49.38,49.37c0,27.27-22.11,49.37-49.38,49.37  c-27.26,0-49.37-22.1-49.37-49.37c0-13.64,5.53-25.98,14.46-34.91C98.355,292.79,110.695,287.26,124.325,287.26z"
     id="path6" /><path
     style="fill:#ffffff"
     d="M124.325,143.63c27.27,0,49.38,22.1,49.38,49.37s-22.11,49.37-49.38,49.37  c-27.26,0-49.37-22.1-49.37-49.37c0-13.63,5.53-25.98,14.46-34.91C98.355,149.15,110.695,143.63,124.325,143.63z"
     id="path8" /><path
     style="fill:#f9f9f9"
     d="M261.675,287.26c27.27,0,49.37,22.1,49.37,49.37c0,13.64-5.52,25.98-14.46,34.91  c-8.93,8.93-21.28,14.46-34.91,14.46h-137.35c27.27,0,49.38-22.1,49.38-49.37c0-27.27-22.11-49.37-49.38-49.37H261.675z"
     id="path10" /><path
     style="fill:#f9f9f9"
     d="M261.675,143.63c27.27,0,49.37,22.1,49.37,49.37c0,13.63-5.52,25.98-14.46,34.91  c-8.93,8.94-21.28,14.46-34.91,14.46h-137.35c27.27,0,49.38-22.1,49.38-49.37s-22.11-49.37-49.38-49.37H261.675z"
     id="path12" /><g
     id="g14" /><g
     id="g16" /><g
     id="g18" /><g
     id="g20" /><g
     id="g22" /><g
     id="g24" /><g
     id="g26" /><g
     id="g28" /><g
     id="g30" /><g
     id="g32" /><g
     id="g34" /><g
     id="g36" /><g
     id="g38" /><g
     id="g40" /><g
     id="g42" /></svg>